<svg xmlns="http://www.w3.org/2000/svg" viewBox="-60 -60 658 198"><defs><style>@keyframes dash{0%{stroke-dashoffset:727px}to{stroke-dashoffset:0}}@keyframes stroke-width{0%{stroke-width:3px}to{stroke-width:8px}}@keyframes fade{0%{opacity:0}to{opacity:1}}@keyframes dot{0%{r:0}to{r:var(--r)}}@keyframes glow{0%{filter:drop-shadow(0 0 2px rgba(255,255,255,.4)) drop-shadow(0 0 8px var(--color)) drop-shadow(0 0 26px var(--color))}to{filter:drop-shadow(0 0 1.8px rgba(255,255,255,.4)) drop-shadow(0 0 7.2px var(--color)) drop-shadow(0 0 23.5px var(--color))}}@keyframes flicker{0%,18%,22%,25%,53%,57%,to{opacity:1}20%,24%,55%{opacity:.87}}:root{--red:#f96a9c;--pink:#ff96ef;--blue:#7e8af3;--neon-animation:glow 0.11s ease-in-out 0s infinite alternate,
                flicker 2s infinite 2.8s alternate}.stroke{fill:none;stroke:var(--color);stroke-linecap:round;stroke-linejoin:round;stroke-width:3px;stroke-dasharray:727px;stroke-dashoffset:727px;animation:dash 1s cubic-bezier(.8,0,.2,1) var(--delay) forwards,stroke-width 1s cubic-bezier(.8,0,.2,1) calc(var(--delay) + .5s) forwards,fade .2s linear calc(var(--delay) + 0s) forwards,var(--neon-animation);--color:var(--pink)}.stroke.blue{--color:var(--blue)}.stroke.red{--color:var(--red)}</style></defs><g id="text"><path d="m.338 73.81 33.2-73.8 33.3 73.8m-54-20.7h41.6" class="stroke blue" style="--delay:0.5s"/><path d="M82.438 28.71v24.6q0 6.5 2.55 10.85t6.9 6.5q4.35 2.15 9.85 2.15 5.4 0 9.7-2.1 4.3-2.1 6.8-5.65 2.5-3.55 2.5-8.05v-28.3" class="stroke" style="--delay:0.7s"/><path d="M154.338 9.11v49.8q0 5.8 3.6 9.45 3.6 3.65 9.3 3.65h2.2m-29-43.3h29.1" class="stroke" style="--delay:0.9s"/><path d="M190.038 28.71v24.6q0 6.5 2.55 10.85t6.9 6.5q4.35 2.15 9.85 2.15 5.4 0 9.7-2.1 4.3-2.1 6.8-5.65 2.5-3.55 2.5-8.05v-28.3" class="stroke" style="--delay:1.1s"/><path d="M255.338 28.71v46.4-30.6q0-7 4.4-11.4t11.3-4.4q6.5 0 10.55 4.9 4.05 4.9 4.05 12.6v28.9-30.6q0-7 4.1-11.4 4.7-4.4 11.3-4.4 6.8 0 10.55 4.9 4.35 4.9 4.05 12.6l.3 28.9" class="stroke blue" style="--delay:1.3s"/><path d="M343.638 28.71v46.4-30.6q0-4.5 2.5-8.1 2.5-3.6 6.8-5.65 4.3-2.05 9.7-2.05 5.5 0 9.85 2.15t6.9 6.45q2.55 4.3 2.55 10.9v26.9" class="stroke blue" style="--delay:1.5s"/><path d="m399.338.01 31.8 78.1 32.2-78.1" class="stroke red" style="--delay:1.7s"/><path d="M479.138 78.11V.01l56.1 78.1V.01" class="stroke red" style="--delay:1.9s"/></g></svg>